<svg width="18" height="23" viewBox="0 0 18 23" fill="none" xmlns="http://www.w3.org/2000/svg">
<path d="M16.7308 6.3172L12.1154 1.8072C11.4231 1.0372 10.3846 0.597198 9.34616 0.597198H3C1.38462 0.597198 0 1.9172 0 3.5672V19.7372C0 21.2772 1.38462 22.5972 3 22.5972H15C16.6154 22.5972 18 21.2772 18 19.6272V9.0672C18 7.9672 17.5385 6.9772 16.7308 6.3172Z" fill="#8B8B8B"/>
<path d="M12.15 12.6972H5.39999C4.72499 12.6972 4.27499 13.1372 4.27499 13.7972C4.27499 14.4572 4.72499 14.8972 5.39999 14.8972H12.15C12.825 14.8972 13.275 14.4572 13.275 13.7972C13.275 13.1372 12.7125 12.6972 12.15 12.6972Z" fill="white"/>
<path d="M8.77499 15.9972H5.39999C4.72499 15.9972 4.27499 16.4372 4.27499 17.0972C4.27499 17.7572 4.72499 18.1972 5.39999 18.1972H8.77499C9.44999 18.1972 9.89999 17.7572 9.89999 17.0972C9.89999 16.4372 9.33749 15.9972 8.77499 15.9972Z" fill="white"/>
</svg>
