<svg width="20" height="21" viewBox="0 0 20 21" fill="none" xmlns="http://www.w3.org/2000/svg">
<path d="M3.41791 19.5972C2.07463 19.5972 1 18.5199 1 17.1732V8.73433C1 7.65702 1.53731 6.57971 2.52239 5.95128L8.70149 2.00116C9.50746 1.4625 10.4925 1.4625 11.2985 2.00116L17.4776 5.95128C18.3731 6.57971 19 7.56724 19 8.73433V17.1732C19 18.5199 17.9254 19.5972 16.5821 19.5972H3.41791Z" fill="#25293F"/>
<path fill-rule="evenodd" clip-rule="evenodd" d="M10.7429 2.83257C10.2732 2.5187 9.72678 2.5187 9.25715 2.83257L9.24011 2.84371L3.06101 6.79383C2.37822 7.22942 2 7.9811 2 8.73433V17.1732C2 17.9699 2.62926 18.5972 3.41791 18.5972H16.5821C17.3707 18.5972 18 17.9699 18 17.1732V8.73433C18 7.95536 17.5879 7.257 16.9196 6.78141L10.7599 2.84371L10.7429 2.83257ZM11.845 1.16365C10.7073 0.408345 9.29271 0.408339 8.15501 1.16364L1.98456 5.10823C0.69748 5.92954 0 7.3331 0 8.73433V17.1732C0 19.0698 1.51999 20.5972 3.41791 20.5972H16.5821C18.48 20.5972 20 19.0698 20 17.1732V8.73433C20 7.18547 19.1651 5.91378 18.052 5.13272C18.0403 5.12447 18.0283 5.11647 18.0162 5.10873L11.845 1.16365Z" fill="#25293F"/>
</svg>
