<svg width="18" height="21" viewBox="0 0 18 21" fill="none" xmlns="http://www.w3.org/2000/svg">
<path d="M17.6791 16.0053C16.6769 13.5564 14.7727 11.7196 12.4676 10.8012C13.7705 9.78084 14.5723 8.14819 14.5723 6.41349C14.5723 3.14819 12.0667 0.597168 8.95984 0.597168C5.85296 0.597168 3.34741 3.14819 3.34741 6.31145C3.34741 8.04615 4.14919 9.6788 5.45207 10.6992C3.14697 11.6176 1.24275 13.4543 0.240533 15.9033C-0.160355 16.9237 -0.0601332 18.1482 0.541198 19.0666C1.14253 20.087 2.24497 20.5972 3.44763 20.5972H14.5723C15.7749 20.5972 16.7772 19.9849 17.4787 19.0666C18.08 18.1482 18.1803 17.0257 17.6791 16.0053Z" fill="#25293F"/>
</svg>
