<svg width="20" height="21" viewBox="0 0 20 21" fill="none" xmlns="http://www.w3.org/2000/svg">
<path d="M19.1592 15.6992L15.7962 12.3319C16.3057 11.2094 16.6115 10.087 16.6115 8.8625C16.6115 6.61761 15.7962 4.57679 14.1656 3.04618C10.9045 -0.219128 5.70701 -0.219128 2.44586 3.04618C-0.815287 6.31148 -0.815287 11.5156 2.44586 14.7809C3.97452 16.3115 6.11465 17.2299 8.25478 17.2299C9.47771 17.2299 10.7006 16.9237 11.7197 16.4135L15.0828 19.7809C15.5924 20.2911 16.4076 20.5972 17.121 20.5972C17.8344 20.5972 18.5478 20.2911 19.1592 19.7809C20.2803 18.5564 20.2803 16.7196 19.1592 15.6992ZM3.87261 13.1482C1.42675 10.6992 1.42675 6.71965 3.87261 4.37271C5.09554 3.14822 6.6242 2.53597 8.25478 2.53597C9.88535 2.53597 11.414 3.14822 12.6369 4.37271C13.8599 5.5972 14.4713 7.12781 14.4713 8.76046C14.4713 10.3931 13.8599 12.0258 12.6369 13.1482C11.414 14.2707 9.88535 14.985 8.25478 14.985C6.6242 14.985 4.99363 14.3727 3.87261 13.1482Z" fill="#25293F"/>
</svg>
