<svg width="23" height="17" viewBox="0 0 23 17" fill="none" xmlns="http://www.w3.org/2000/svg">
<path d="M8.50027 13.7971C8.50027 15.3435 7.24667 16.5971 5.70027 16.5971C4.15387 16.5971 2.90027 15.3435 2.90027 13.7971C2.90027 12.2507 4.15387 11.9971 5.70027 11.9971C7.24667 11.9971 8.50027 12.2507 8.50027 13.7971Z" fill="#2D7A76"/>
<circle cx="17.7003" cy="13.7971" r="2.8" fill="#2D7A76"/>
<path fill-rule="evenodd" clip-rule="evenodd" d="M2.5 0.597198C1.39543 0.597198 0.5 1.49263 0.5 2.5972V11.5972C0.5 12.7018 1.39543 13.5972 2.5 13.5972H14.9003V13.5972H20.4999C21.6045 13.5972 22.4999 12.7018 22.4999 11.5972V7.00912C22.4999 6.48843 22.2968 5.98827 21.9339 5.61495L19.5889 3.20304C19.2123 2.81572 18.6951 2.5972 18.1549 2.59721L15.7 2.59722V2.5972C15.7 1.49263 14.8046 0.597198 13.7 0.597198H2.5ZM15.7001 5.5972C15.7001 5.04491 16.1479 4.5972 16.7001 4.5972H18.0857C18.3509 4.5972 18.6053 4.70256 18.7928 4.89009L20.0999 6.1972C20.6904 6.78764 20.2722 7.7972 19.4372 7.7972H16.7001C16.1479 7.7972 15.7001 7.34948 15.7001 6.7972V5.5972ZM3.5 2.5972C2.94772 2.5972 2.5 3.04491 2.5 3.5972V10.5972C2.5 11.1495 2.94772 11.5972 3.5 11.5972H12.5C13.0523 11.5972 13.5 11.1495 13.5 10.5972V3.5972C13.5 3.04491 13.0523 2.5972 12.5 2.5972H3.5Z" fill="#2D7A76"/>
</svg>
