<svg width="18" height="17" viewBox="0 0 18 17" fill="none" xmlns="http://www.w3.org/2000/svg">
<path d="M14.9962 5.44095C16.3252 5.44095 17.4025 4.36363 17.4025 3.0347C17.4025 1.70577 16.3252 0.628448 14.9962 0.628448C13.6673 0.628448 12.59 1.70577 12.59 3.0347C12.59 4.36363 13.6673 5.44095 14.9962 5.44095Z" fill="#2D7A76"/>
<path d="M11.5 4.12845C11.3891 3.63974 11.3288 3.11381 11.3288 2.56595C11.3288 2.24489 11.3495 1.93136 11.389 1.62845H1.30214L1.20859 1.63686C0.809656 1.70906 0.5 2.2374 0.5 2.87845C0.5 3.5688 0.859132 4.12845 1.30214 4.12845H11.5Z" fill="#25293F"/>
<path d="M16.65 14.0659H1.35L1.25087 14.0743C0.828134 14.1466 0.5 14.6749 0.5 15.3159C0.5 16.0063 0.880562 16.5659 1.35 16.5659H16.65L16.7491 16.5576C17.1719 16.4853 17.5 15.9569 17.5 15.3159C17.5 14.6256 17.1195 14.0659 16.65 14.0659Z" fill="#25293F"/>
<path d="M1.3499 7.81677L16.6499 7.81403C17.1194 7.81403 17.5 8.37291 17.5 9.06253C17.5 9.70282 17.172 10.2307 16.7492 10.3029L16.6501 10.3113L1.3501 10.314C0.880664 10.3142 0.5 9.75514 0.5 9.06552C0.5 8.42523 0.828049 7.89743 1.25077 7.82514L1.3499 7.81677Z" fill="#25293F"/>
</svg>
