<svg width="16" height="21" viewBox="0 0 16 21" fill="none" xmlns="http://www.w3.org/2000/svg">
<path fill-rule="evenodd" clip-rule="evenodd" d="M7.28284 0.649139C9.59555 0.375878 11.8193 1.19566 13.5094 2.74414C15.1105 4.20153 16 6.29653 16 8.48261C16 10.1222 15.5552 11.6707 14.5768 13.037L10.0403 19.5041C9.59555 20.2328 8.795 20.5972 7.99444 20.5972C7.19389 20.5972 6.39333 20.2328 6.03753 19.5952L1.50104 13.128C0.166782 11.3063 -0.277971 9.12022 0.166782 6.93413C0.789437 3.56392 3.72481 0.9224 7.28284 0.649139ZM11.0186 8.48257C11.0186 10.193 9.66461 11.5795 7.99432 11.5795C6.32403 11.5795 4.97 10.193 4.97 8.48257C4.97 6.77217 6.32403 5.38562 7.99432 5.38562C9.66461 5.38562 11.0186 6.77217 11.0186 8.48257Z" fill="#25293F"/>
</svg>
