<svg width="20" height="20" viewBox="0 0 20 20" fill="none" xmlns="http://www.w3.org/2000/svg">
<path d="M17.0543 6.33443C18.6178 6.33443 19.8852 5.0501 19.8852 3.4658C19.8852 1.8815 18.6178 0.597168 17.0543 0.597168C15.4909 0.597168 14.2234 1.8815 14.2234 3.4658C14.2234 5.0501 15.4909 6.33443 17.0543 6.33443Z" fill="#25293F"/>
<path d="M12.9412 4.76976C12.8108 4.18714 12.7398 3.56015 12.7398 2.90702C12.7398 2.52426 12.7641 2.15049 12.8106 1.78937H0.943688L0.833635 1.7994C0.364301 1.88547 0 2.51533 0 3.27957C0 4.10257 0.422508 4.76976 0.943688 4.76976H12.9412Z" fill="#25293F"/>
<path d="M19 16.6168H1L0.88338 16.6267C0.38604 16.7129 0 17.3428 0 18.107C0 18.93 0.44772 19.5972 1 19.5972H19L19.1166 19.5872C19.614 19.501 20 18.8711 20 18.107C20 17.2839 19.5523 16.6168 19 16.6168Z" fill="#25293F"/>
<path d="M0.99988 9.16673L18.9999 9.16345C19.5522 9.16345 20 9.82973 20 10.6519C20 11.4152 19.6141 12.0446 19.1167 12.1306L19.0001 12.1406L1.00012 12.1438C0.44784 12.144 0 11.4776 0 10.6554C0 9.8921 0.38594 9.26289 0.88326 9.1767L0.99988 9.16673Z" fill="#25293F"/>
</svg>
